<svg xmlns="http://www.w3.org/2000/svg" xmlns:xlink="http://www.w3.org/1999/xlink" width="1920" zoomAndPan="magnify" viewBox="0 0 1440 809.999993" height="1080" preserveAspectRatio="xMidYMid meet" version="1.0"><defs><g/><clipPath id="7fb7f8479b"><path d="M 0.121094 0.320312 L 383.878906 0.320312 L 383.878906 476.960938 L 0.121094 476.960938 Z M 0.121094 0.320312 " clip-rule="nonzero"/></clipPath><clipPath id="efff6501b8"><rect x="0" width="384" y="0" height="477"/></clipPath><clipPath id="0de500bb9d"><rect x="0" width="384" y="0" height="477"/></clipPath></defs><g transform="matrix(1, 0, 0, 1, 525, 166)"><g clip-path="url(#0de500bb9d)"><g clip-path="url(#7fb7f8479b)"><g transform="matrix(1, 0, 0, 1, -0.000000000000113687, 0.000000000000056843)"><g clip-path="url(#efff6501b8)"><g fill="#ffffff" fill-opacity="1"><g transform="translate(1.02718, 357.764669)"><g><path d="M 23.828125 0 L 23.828125 -339.25 L 372.125 -339.25 L 372.125 -276.828125 L 116.734375 -276.828125 L 116.734375 -201.0625 L 353.0625 -201.0625 L 353.0625 -146.28125 L 116.734375 -146.28125 L 116.734375 -62.421875 L 376.890625 -62.421875 L 376.890625 0 Z M 23.828125 0 "/></g></g></g></g></g></g></g></g></svg>