<svg xmlns="http://www.w3.org/2000/svg" xmlns:xlink="http://www.w3.org/1999/xlink" width="500" zoomAndPan="magnify" viewBox="0 0 375 374.999991" height="500" preserveAspectRatio="xMidYMid meet" version="1.0"><defs><g/><clipPath id="7299938d31"><path d="M 29.9375 28.976562 L 344.9375 28.976562 L 344.9375 343.976562 L 29.9375 343.976562 Z M 29.9375 28.976562 " clip-rule="nonzero"/></clipPath><clipPath id="24ee780383"><path d="M 1.054688 0.976562 L 315.9375 0.976562 L 315.9375 315.976562 L 1.054688 315.976562 Z M 1.054688 0.976562 " clip-rule="nonzero"/></clipPath><clipPath id="6d0344c334"><rect x="0" width="316" y="0" height="316"/></clipPath></defs><g clip-path="url(#7299938d31)"><g transform="matrix(1, 0, 0, 1, 29, 28)"><g clip-path="url(#6d0344c334)"><g clip-path="url(#24ee780383)"><path fill="#343332" d="M 14.167969 315.121094 L 13.949219 313.9375 L 13.59375 305.417969 C 13.582031 304.558594 13.054688 304.167969 12.011719 304.246094 L 11.683594 299.523438 L 11.148438 303.71875 C 11.140625 299.886719 10.949219 299.875 10.574219 303.679688 L 9.742188 290.28125 C 9.632812 262.136719 7.125 194.253906 2.222656 86.632812 L 0.980469 40.191406 C 1.027344 38.726562 1.195312 40.207031 1.480469 44.628906 C 1.179688 38.652344 1.316406 34.632812 1.898438 32.574219 L 1.929688 11.011719 L 3.355469 28.25 L 3.054688 10.125 L 11.875 3.234375 C 18.59375 2.898438 22.265625 2.886719 22.878906 3.199219 L 10.765625 3.808594 C 9.964844 3.890625 9.816406 3.933594 10.328125 3.941406 L 33.28125 3.523438 C 26.898438 3.902344 26.65625 4.117188 32.558594 4.175781 C 34.867188 4.226562 35.128906 4.132812 33.34375 3.898438 L 36.828125 3.769531 L 117.195312 1.828125 L 177.589844 0.976562 C 180.992188 1.007812 178.539062 1.109375 170.238281 1.289062 L 138.78125 1.753906 L 119.878906 2.402344 C 162.773438 2.148438 185.386719 2.429688 187.71875 3.242188 L 185.246094 3.570312 L 156.96875 3.351562 C 153.34375 3.355469 150.917969 3.492188 149.691406 3.765625 L 113.921875 4.171875 C 98.984375 4.75 100.714844 5.042969 119.117188 5.046875 L 160.339844 4.382812 L 166.753906 4.371094 L 166.457031 4.527344 L 138.554688 5.039062 C 136.640625 5.101562 136.773438 5.132812 138.949219 5.140625 L 143.765625 5.125 L 136.539062 5.414062 L 110.289062 6.15625 L 101.648438 6.167969 L 102.527344 6.445312 L 58.246094 8.171875 L 41.542969 8.183594 C 39.652344 8.214844 39.023438 8.359375 39.648438 8.609375 L 88.761719 9.507812 L 72.585938 9.582031 L 37.121094 9.917969 C 35.121094 9.925781 34.15625 9.960938 34.230469 10.019531 L 315.757812 10.363281 L 315.988281 89.261719 C 315.5625 90.929688 315.367188 125.554688 315.398438 193.132812 L 315.015625 208.179688 C 315.171875 199.40625 315.125 198.625 314.878906 205.839844 C 314.847656 213.433594 314.960938 213.902344 315.222656 207.25 L 315.199219 215.269531 C 315.183594 217.601562 315.078125 218.046875 314.894531 216.605469 L 314.863281 218.613281 L 314.222656 287.308594 L 314.480469 292.496094 C 314.453125 269.511719 314.597656 257.90625 314.914062 257.675781 L 314.984375 315.003906 L 229.203125 314.378906 L 210.761719 314.347656 C 212.785156 314.425781 212.816406 314.46875 210.851562 314.472656 L 118.835938 314.324219 C 112.511719 314.25 110.390625 314.179688 112.46875 314.121094 L 165.273438 314.203125 C 175.941406 314.105469 177.160156 314.015625 168.925781 313.941406 C 114.25 313.875 61.324219 313.578125 10.148438 313.054688 L 98.019531 313.171875 C 103.539062 313.125 104.441406 313.054688 100.726562 312.960938 L 81.417969 312.738281 L 84.542969 312.671875 L 149.679688 312.921875 L 160.773438 312.9375 L 159.566406 312.824219 L 165.378906 312.8125 L 190.8125 313.1875 C 189.5 313.136719 189.589844 313.03125 191.082031 312.878906 L 274.925781 312.765625 C 277.492188 312.417969 277.054688 312.1875 273.613281 312.074219 L 269 312.175781 C 273.800781 312.070312 272.582031 311.992188 265.347656 311.9375 L 253.058594 312.027344 L 244.890625 311.753906 L 148.046875 311.855469 C 147.363281 311.828125 147.554688 311.796875 148.621094 311.761719 L 156.523438 311.640625 L 203.402344 311.511719 C 205.515625 311.441406 205.378906 311.335938 202.992188 311.199219 L 195.527344 311.164062 C 193.230469 311.136719 192.808594 311.078125 194.257812 310.988281 L 221.445312 311.042969 C 230.125 310.960938 233.238281 310.863281 230.785156 310.753906 L 135.570312 310.796875 C 127.125 310.742188 127.585938 310.683594 136.953125 310.621094 L 229.433594 310.304688 L 242.050781 310.589844 L 247.058594 310.53125 C 245.796875 310.40625 246.101562 310.363281 247.972656 310.402344 L 269.375 310.617188 L 280.183594 310.980469 L 314.3125 311.03125 L 310.777344 316.097656 L 310.847656 303.925781 C 310.78125 311.800781 310.558594 312.289062 310.183594 305.390625 L 310.234375 303.214844 C 310.578125 305.535156 310.742188 305.292969 310.726562 302.488281 L 310.375 281.742188 L 310.550781 279.398438 L 310.40625 275.5625 L 310.507812 271.964844 L 310.660156 272.585938 L 310.714844 266.714844 L 310.683594 262.1875 C 310.449219 264.976562 310.371094 264.679688 310.445312 261.292969 L 310.703125 257.820312 L 310.296875 247.992188 L 310.191406 249.128906 L 310.082031 244.074219 C 310.101562 241.523438 310.203125 241.175781 310.398438 243.03125 L 310.238281 211.234375 L 310.324219 202.089844 C 310.613281 197.21875 310.796875 197.679688 310.871094 203.476562 L 310.972656 195.085938 L 310.832031 179.828125 L 310.816406 192.167969 C 310.625 195.835938 310.457031 196.449219 310.308594 194.007812 L 310.71875 188.746094 L 310.121094 73.847656 L 310.148438 70.453125 C 310.34375 74.75 310.425781 75.195312 310.390625 71.789062 L 310.257812 66.453125 C 310.214844 69.964844 310.15625 70.042969 310.082031 66.683594 L 309.628906 12.453125 L 315.222656 16.609375 L 291.519531 16.359375 L 274.722656 16.859375 C 256.402344 17.144531 248.410156 17.136719 250.75 16.835938 L 248.347656 16.921875 C 249.644531 17.046875 249.273438 17.113281 247.226562 17.121094 L 238.273438 17.203125 L 234.972656 17.195312 C 233.308594 17.199219 233.277344 17.15625 234.882812 17.0625 L 230.046875 17.011719 L 220.457031 17.386719 C 218.859375 17.175781 216.304688 17.097656 212.796875 17.15625 L 198.800781 17.535156 L 199.296875 17.363281 L 194.96875 17.132812 C 199.519531 17.0625 199.5625 16.898438 195.101562 16.644531 L 186.316406 16.453125 L 186.058594 16.625 L 189.144531 16.753906 L 185.519531 17.433594 L 159.460938 17.847656 L 147.507812 17.59375 L 140.640625 17.820312 L 142.226562 18.007812 L 126.628906 18.0625 L 120.117188 17.734375 C 98.9375 18.164062 77.746094 18.410156 56.539062 18.46875 C 55.773438 18.410156 55.695312 18.273438 56.304688 18.058594 L 49.847656 17.894531 L 48.75 18.046875 L 53.855469 18.15625 L 50.925781 18.449219 L 12.539062 18.851562 L 18.648438 10.753906 C 19.160156 126.605469 19.078125 195.628906 18.402344 217.8125 C 17.75 241.070312 17.503906 239.078125 17.664062 211.839844 L 16.792969 255.484375 L 16.449219 264.820312 C 16.300781 258.121094 16.207031 256.808594 16.15625 260.886719 L 16.078125 271.722656 C 15.691406 267.136719 15.445312 267.023438 15.347656 271.382812 L 15.351562 264.730469 L 15.261719 265.355469 L 15.585938 303.558594 C 15.683594 305.542969 15.46875 306.402344 14.941406 306.136719 L 14.425781 315.308594 C 14.230469 315.546875 14.144531 315.484375 14.167969 315.121094 " fill-opacity="1" fill-rule="nonzero"/></g></g></g></g><g fill="#343332" fill-opacity="1"><g transform="translate(81.59841, 200.040894)"><g><path d="M 2.703125 0 L 2.703125 -38.453125 L 42.171875 -38.453125 L 42.171875 -31.375 L 13.234375 -31.375 L 13.234375 -22.78125 L 40.015625 -22.78125 L 40.015625 -16.578125 L 13.234375 -16.578125 L 13.234375 -7.078125 L 42.71875 -7.078125 L 42.71875 0 Z M 2.703125 0 "/></g></g></g><g fill="#343332" fill-opacity="1"><g transform="translate(124.960437, 200.040894)"><g><path d="M 2.15625 11.34375 L 2.15625 -27.640625 L 10.6875 -27.640625 L 11.9375 -20.734375 L 11.984375 -20.734375 C 12.742188 -22.316406 13.890625 -23.703125 15.421875 -24.890625 C 16.953125 -26.078125 18.757812 -26.992188 20.84375 -27.640625 C 22.925781 -28.296875 25.160156 -28.625 27.546875 -28.625 C 31.066406 -28.625 34.128906 -28.007812 36.734375 -26.78125 C 39.347656 -25.5625 41.375 -23.84375 42.8125 -21.625 C 44.257812 -19.414062 44.984375 -16.816406 44.984375 -13.828125 C 44.984375 -10.867188 44.257812 -8.273438 42.8125 -6.046875 C 41.375 -3.816406 39.347656 -2.085938 36.734375 -0.859375 C 34.128906 0.359375 31.082031 0.96875 27.59375 0.96875 C 25.21875 0.96875 22.992188 0.644531 20.921875 0 C 18.847656 -0.644531 17.046875 -1.5625 15.515625 -2.75 C 13.992188 -3.9375 12.851562 -5.320312 12.09375 -6.90625 L 12.046875 -6.90625 L 12.046875 11.34375 Z M 23.375 -5.890625 C 26.90625 -5.890625 29.738281 -6.617188 31.875 -8.078125 C 34.019531 -9.535156 35.09375 -11.453125 35.09375 -13.828125 C 35.09375 -16.203125 34.019531 -18.117188 31.875 -19.578125 C 29.738281 -21.035156 26.90625 -21.765625 23.375 -21.765625 C 19.882812 -21.765625 17.066406 -21.035156 14.921875 -19.578125 C 12.785156 -18.117188 11.71875 -16.203125 11.71875 -13.828125 C 11.71875 -11.453125 12.785156 -9.535156 14.921875 -8.078125 C 17.066406 -6.617188 19.882812 -5.890625 23.375 -5.890625 Z M 23.375 -5.890625 "/></g></g></g><g fill="#343332" fill-opacity="1"><g transform="translate(170.860455, 200.040894)"><g><path d="M 16.53125 0.96875 C 13.5 0.96875 10.875 0.4375 8.65625 -0.625 C 6.445312 -1.6875 4.75 -3.207031 3.5625 -5.1875 C 2.375 -7.164062 1.78125 -9.503906 1.78125 -12.203125 L 1.78125 -27.640625 L 11.65625 -27.640625 L 11.65625 -13.234375 C 11.65625 -10.671875 12.445312 -8.671875 14.03125 -7.234375 C 15.625 -5.796875 17.84375 -5.078125 20.6875 -5.078125 C 24.101562 -5.078125 26.773438 -5.957031 28.703125 -7.71875 C 30.628906 -9.488281 31.59375 -11.957031 31.59375 -15.125 L 31.59375 -27.640625 L 41.421875 -27.640625 L 41.421875 0 L 32.828125 0 L 31.8125 -6.859375 L 31.75 -6.859375 C 30.488281 -4.441406 28.535156 -2.53125 25.890625 -1.125 C 23.242188 0.269531 20.125 0.96875 16.53125 0.96875 Z M 16.53125 0.96875 "/></g></g></g><g fill="#343332" fill-opacity="1"><g transform="translate(214.006474, 200.040894)"><g><path d="M 23.328125 -28.625 C 26.390625 -28.625 28.890625 -27.613281 30.828125 -25.59375 C 32.773438 -23.582031 33.875 -20.8125 34.125 -17.28125 L 25.15625 -15.390625 C 25.019531 -17.546875 24.425781 -19.234375 23.375 -20.453125 C 22.332031 -21.679688 21.019531 -22.296875 19.4375 -22.296875 C 17.132812 -22.296875 15.328125 -21.382812 14.015625 -19.5625 C 12.703125 -17.75 12.046875 -15.296875 12.046875 -12.203125 L 12.046875 0 L 2.15625 0 L 2.15625 -27.640625 L 10.46875 -27.640625 L 11.765625 -21.390625 L 11.828125 -21.390625 C 12.867188 -23.617188 14.414062 -25.378906 16.46875 -26.671875 C 18.519531 -27.972656 20.804688 -28.625 23.328125 -28.625 Z M 23.328125 -28.625 "/></g></g></g><g fill="#343332" fill-opacity="1"><g transform="translate(248.404494, 200.040894)"><g><path d="M 24.296875 0.96875 C 19.796875 0.96875 15.816406 0.347656 12.359375 -0.890625 C 8.910156 -2.128906 6.210938 -3.875 4.265625 -6.125 C 2.316406 -8.375 1.34375 -10.976562 1.34375 -13.9375 C 1.34375 -16.8125 2.234375 -19.347656 4.015625 -21.546875 C 5.804688 -23.742188 8.285156 -25.472656 11.453125 -26.734375 C 14.617188 -27.992188 18.253906 -28.625 22.359375 -28.625 C 26.390625 -28.625 29.925781 -28 32.96875 -26.75 C 36.007812 -25.507812 38.382812 -23.789062 40.09375 -21.59375 C 41.800781 -19.40625 42.65625 -16.832031 42.65625 -13.875 C 42.65625 -13.550781 42.632812 -13.144531 42.59375 -12.65625 C 42.5625 -12.175781 42.492188 -11.738281 42.390625 -11.34375 L 11.875 -11.34375 C 12.269531 -10.007812 13.109375 -8.882812 14.390625 -7.96875 C 15.671875 -7.050781 17.238281 -6.359375 19.09375 -5.890625 C 20.945312 -5.421875 22.9375 -5.1875 25.0625 -5.1875 C 27.070312 -5.1875 29.019531 -5.347656 30.90625 -5.671875 C 32.800781 -5.992188 34.53125 -6.441406 36.09375 -7.015625 C 37.664062 -7.597656 38.9375 -8.25 39.90625 -8.96875 L 43.03125 -4 C 41.769531 -3.019531 40.160156 -2.148438 38.203125 -1.390625 C 36.242188 -0.640625 34.078125 -0.0625 31.703125 0.34375 C 29.328125 0.757812 26.859375 0.96875 24.296875 0.96875 Z M 11.65625 -16.140625 L 32.671875 -16.140625 C 32.566406 -17.472656 32.035156 -18.632812 31.078125 -19.625 C 30.117188 -20.613281 28.875 -21.378906 27.34375 -21.921875 C 25.820312 -22.460938 24.101562 -22.734375 22.1875 -22.734375 C 20.320312 -22.734375 18.625 -22.453125 17.09375 -21.890625 C 15.5625 -21.335938 14.316406 -20.566406 13.359375 -19.578125 C 12.410156 -18.585938 11.84375 -17.441406 11.65625 -16.140625 Z M 11.65625 -16.140625 "/></g></g></g></svg>
