<svg xmlns="http://www.w3.org/2000/svg" xmlns:xlink="http://www.w3.org/1999/xlink" width="1920" zoomAndPan="magnify" viewBox="0 0 1440 809.999993" height="1080" preserveAspectRatio="xMidYMid meet" version="1.0"><defs><g/><clipPath id="f1db4aa4db"><path d="M 0.679688 0.519531 L 547.640625 0.519531 L 547.640625 547.480469 L 0.679688 547.480469 Z M 0.679688 0.519531 " clip-rule="nonzero"/></clipPath><clipPath id="d37bf853d7"><path d="M 1.019531 0.769531 L 547.257812 0.769531 L 547.257812 547.007812 L 1.019531 547.007812 Z M 1.019531 0.769531 " clip-rule="nonzero"/></clipPath><clipPath id="09f4c408a4"><path d="M 0.234375 0.769531 L 546.257812 0.769531 L 546.257812 547.007812 L 0.234375 547.007812 Z M 0.234375 0.769531 " clip-rule="nonzero"/></clipPath><clipPath id="8e4933f746"><rect x="0" width="547" y="0" height="548"/></clipPath><clipPath id="ec171069d1"><rect x="0" width="369" y="0" height="95"/></clipPath><clipPath id="2e71e9dee0"><rect x="0" width="548" y="0" height="548"/></clipPath><clipPath id="ae3d82eba8"><rect x="0" width="548" y="0" height="548"/></clipPath></defs><g transform="matrix(1, 0, 0, 1, 445, 131)"><g clip-path="url(#ae3d82eba8)"><g clip-path="url(#f1db4aa4db)"><g transform="matrix(1, 0, 0, 1, 0.000000000000056843, 0.000000000000028422)"><g clip-path="url(#2e71e9dee0)"><g clip-path="url(#d37bf853d7)"><g transform="matrix(1, 0, 0, 1, 1, 0.000000000000028422)"><g clip-path="url(#8e4933f746)"><g clip-path="url(#09f4c408a4)"><path fill="#ffffff" d="M 22.96875 545.535156 L 22.589844 543.484375 L 21.972656 528.710938 C 21.949219 527.21875 21.03125 526.539062 19.226562 526.671875 L 18.660156 518.484375 L 17.730469 525.757812 C 17.714844 519.117188 17.382812 519.09375 16.734375 525.691406 L 15.292969 502.460938 C 15.101562 453.652344 10.753906 335.933594 2.25 149.304688 L 0.0976562 68.773438 C 0.179688 66.234375 0.46875 68.796875 0.960938 76.46875 C 0.4375 66.105469 0.679688 59.136719 1.683594 55.5625 L 1.742188 18.171875 L 4.210938 48.0625 L 3.691406 16.632812 L 18.988281 4.683594 C 30.644531 4.101562 37.003906 4.082031 38.070312 4.621094 L 17.066406 5.679688 C 15.675781 5.820312 15.421875 5.898438 16.304688 5.910156 L 56.109375 5.183594 C 45.042969 5.839844 44.625 6.214844 54.855469 6.3125 C 58.859375 6.402344 59.3125 6.246094 56.21875 5.835938 L 62.261719 5.613281 L 201.625 2.242188 L 306.359375 0.769531 C 312.257812 0.824219 308.007812 1 293.609375 1.308594 L 239.0625 2.117188 L 206.28125 3.238281 C 280.667969 2.800781 319.882812 3.289062 323.925781 4.699219 L 319.636719 5.269531 L 270.601562 4.886719 C 264.3125 4.894531 260.105469 5.132812 257.984375 5.601562 L 195.949219 6.3125 C 170.042969 7.3125 173.046875 7.816406 204.957031 7.828125 L 276.445312 6.671875 L 287.570312 6.65625 L 287.054688 6.925781 L 238.667969 7.8125 C 235.347656 7.921875 235.578125 7.980469 239.355469 7.988281 L 247.707031 7.960938 L 235.171875 8.464844 L 189.652344 9.753906 L 174.667969 9.769531 L 176.191406 10.25 L 99.402344 13.246094 L 70.4375 13.261719 C 67.160156 13.324219 66.066406 13.570312 67.152344 14.007812 L 152.320312 15.5625 L 124.269531 15.691406 L 62.765625 16.273438 C 59.300781 16.289062 57.628906 16.347656 57.753906 16.453125 L 545.964844 17.046875 L 546.355469 153.867188 C 545.621094 156.761719 545.28125 216.804688 545.335938 333.992188 L 544.671875 360.089844 C 544.941406 344.867188 544.863281 343.515625 544.433594 356.03125 C 544.382812 369.195312 544.582031 370.007812 545.03125 358.46875 L 544.996094 372.382812 C 544.964844 376.425781 544.785156 377.195312 544.460938 374.695312 L 544.410156 378.175781 L 543.296875 497.300781 L 543.746094 506.304688 C 543.695312 466.445312 543.945312 446.316406 544.5 445.914062 L 544.617188 545.332031 L 395.863281 544.25 L 363.882812 544.191406 C 367.390625 544.328125 367.445312 544.402344 364.039062 544.410156 L 204.46875 544.152344 C 193.507812 544.023438 189.828125 543.90625 193.433594 543.804688 L 285.003906 543.945312 C 303.503906 543.773438 305.613281 543.621094 291.335938 543.492188 C 196.519531 543.371094 104.738281 542.859375 15.992188 541.953125 L 168.371094 542.15625 C 177.945312 542.074219 179.511719 541.953125 173.070312 541.789062 L 139.585938 541.40625 L 145.003906 541.285156 L 257.957031 541.722656 L 277.199219 541.75 L 275.101562 541.550781 L 285.183594 541.527344 L 329.292969 542.179688 C 327.011719 542.089844 327.167969 541.914062 329.757812 541.644531 L 475.15625 541.453125 C 479.605469 540.84375 478.84375 540.445312 472.875 540.25 L 464.875 540.425781 C 473.203125 540.246094 471.089844 540.109375 458.539062 540.015625 L 437.230469 540.171875 L 423.066406 539.695312 L 255.128906 539.875 C 253.945312 539.828125 254.273438 539.773438 256.121094 539.710938 L 269.828125 539.5 L 351.121094 539.277344 C 354.789062 539.15625 354.550781 538.972656 350.414062 538.730469 L 337.464844 538.671875 C 333.484375 538.625 332.753906 538.523438 335.265625 538.367188 L 382.414062 538.464844 C 397.460938 538.316406 402.859375 538.148438 398.605469 537.964844 L 233.488281 538.03125 C 218.847656 537.941406 219.648438 537.839844 235.890625 537.734375 L 396.261719 537.183594 L 418.140625 537.675781 L 426.828125 537.578125 C 424.636719 537.355469 425.167969 537.28125 428.414062 537.351562 L 465.53125 537.722656 L 484.273438 538.355469 L 543.453125 538.441406 L 537.324219 547.230469 L 537.445312 526.121094 C 537.332031 539.773438 536.945312 540.621094 536.292969 528.664062 L 536.378906 524.886719 C 536.980469 528.910156 537.265625 528.488281 537.238281 523.628906 L 536.628906 487.652344 L 536.929688 483.585938 L 536.679688 476.933594 L 536.855469 470.695312 L 537.117188 471.773438 L 537.214844 461.59375 L 537.160156 453.742188 C 536.757812 458.578125 536.617188 458.058594 536.746094 452.191406 L 537.195312 446.164062 L 536.492188 429.125 L 536.308594 431.097656 L 536.121094 422.332031 C 536.148438 417.90625 536.328125 417.304688 536.664062 420.519531 L 536.390625 365.378906 L 536.539062 349.527344 C 537.039062 341.078125 537.355469 341.878906 537.484375 351.925781 L 537.660156 337.378906 L 537.417969 310.921875 L 537.386719 332.316406 C 537.058594 338.679688 536.765625 339.746094 536.511719 335.507812 L 537.21875 326.386719 L 536.1875 127.140625 L 536.234375 121.246094 C 536.574219 128.703125 536.710938 129.476562 536.65625 123.566406 L 536.421875 114.308594 C 536.347656 120.402344 536.246094 120.539062 536.121094 114.710938 L 535.335938 20.671875 L 545.03125 27.878906 L 503.925781 27.441406 L 474.800781 28.3125 C 443.03125 28.804688 429.171875 28.792969 433.230469 28.273438 L 429.066406 28.421875 C 431.3125 28.632812 430.664062 28.75 427.121094 28.765625 L 411.589844 28.902344 L 405.867188 28.894531 C 402.980469 28.902344 402.929688 28.824219 405.714844 28.660156 L 397.324219 28.574219 L 380.699219 29.226562 C 377.925781 28.859375 373.496094 28.726562 367.414062 28.828125 L 343.140625 29.484375 L 344.003906 29.1875 L 336.5 28.785156 C 344.386719 28.660156 344.464844 28.378906 336.726562 27.941406 L 321.492188 27.609375 L 321.042969 27.90625 L 326.394531 28.128906 L 320.113281 29.304688 L 274.917969 30.027344 L 254.195312 29.582031 L 242.285156 29.980469 L 245.035156 30.304688 L 217.984375 30.398438 L 206.691406 29.828125 C 169.964844 30.570312 133.214844 30.996094 96.441406 31.101562 C 95.113281 31 94.980469 30.761719 96.039062 30.390625 L 84.835938 30.109375 L 82.933594 30.367188 L 91.789062 30.5625 L 86.710938 31.066406 L 20.136719 31.769531 L 30.734375 17.722656 C 31.621094 218.628906 31.480469 338.316406 30.304688 376.792969 C 29.175781 417.121094 28.75 413.667969 29.03125 366.429688 L 27.519531 442.117188 L 26.921875 458.304688 C 26.667969 446.6875 26.5 444.414062 26.417969 451.484375 L 26.28125 470.277344 C 25.605469 462.320312 25.183594 462.125 25.015625 469.683594 L 25.019531 458.152344 L 24.859375 459.234375 L 25.425781 525.480469 C 25.59375 528.925781 25.222656 530.417969 24.308594 529.953125 L 23.410156 545.859375 C 23.074219 546.277344 22.925781 546.167969 22.96875 545.535156 " fill-opacity="1" fill-rule="nonzero"/></g></g></g></g><g transform="matrix(1, 0, 0, 1, 89, 225)"><g clip-path="url(#ec171069d1)"><g fill="#ffffff" fill-opacity="1"><g transform="translate(1.60676, 70.747187)"><g><path d="M 4.6875 0 L 4.6875 -66.671875 L 73.140625 -66.671875 L 73.140625 -54.40625 L 22.9375 -54.40625 L 22.9375 -39.515625 L 69.390625 -39.515625 L 69.390625 -28.75 L 22.9375 -28.75 L 22.9375 -12.265625 L 74.0625 -12.265625 L 74.0625 0 Z M 4.6875 0 "/></g></g></g><g fill="#ffffff" fill-opacity="1"><g transform="translate(76.800622, 70.747187)"><g><path d="M 3.75 19.671875 L 3.75 -47.9375 L 18.546875 -47.9375 L 20.6875 -35.953125 L 20.78125 -35.953125 C 22.09375 -38.703125 24.078125 -41.109375 26.734375 -43.171875 C 29.390625 -45.234375 32.523438 -46.820312 36.140625 -47.9375 C 39.765625 -49.0625 43.632812 -49.625 47.75 -49.625 C 53.875 -49.625 59.195312 -48.5625 63.71875 -46.4375 C 68.25 -44.320312 71.757812 -41.34375 74.25 -37.5 C 76.75 -33.664062 78 -29.15625 78 -23.96875 C 78 -18.851562 76.75 -14.359375 74.25 -10.484375 C 71.757812 -6.617188 68.25 -3.625 63.71875 -1.5 C 59.195312 0.625 53.90625 1.6875 47.84375 1.6875 C 43.726562 1.6875 39.875 1.125 36.28125 0 C 32.695312 -1.125 29.578125 -2.710938 26.921875 -4.765625 C 24.265625 -6.828125 22.28125 -9.234375 20.96875 -11.984375 L 20.875 -11.984375 L 20.875 19.671875 Z M 40.546875 -10.203125 C 46.660156 -10.203125 51.570312 -11.46875 55.28125 -14 C 59 -16.53125 60.859375 -19.851562 60.859375 -23.96875 C 60.859375 -28.09375 59 -31.414062 55.28125 -33.9375 C 51.570312 -36.46875 46.660156 -37.734375 40.546875 -37.734375 C 34.492188 -37.734375 29.609375 -36.46875 25.890625 -33.9375 C 22.171875 -31.414062 20.3125 -28.09375 20.3125 -23.96875 C 20.3125 -19.851562 22.171875 -16.53125 25.890625 -14 C 29.609375 -11.46875 34.492188 -10.203125 40.546875 -10.203125 Z M 40.546875 -10.203125 "/></g></g></g><g fill="#ffffff" fill-opacity="1"><g transform="translate(156.3956, 70.747187)"><g><path d="M 28.65625 1.6875 C 23.40625 1.6875 18.859375 0.765625 15.015625 -1.078125 C 11.179688 -2.921875 8.234375 -5.554688 6.171875 -8.984375 C 4.117188 -12.421875 3.09375 -16.476562 3.09375 -21.15625 L 3.09375 -47.9375 L 20.21875 -47.9375 L 20.21875 -22.9375 C 20.21875 -18.507812 21.59375 -15.046875 24.34375 -12.546875 C 27.09375 -10.046875 30.929688 -8.796875 35.859375 -8.796875 C 41.796875 -8.796875 46.429688 -10.328125 49.765625 -13.390625 C 53.109375 -16.453125 54.78125 -20.726562 54.78125 -26.21875 L 54.78125 -47.9375 L 71.828125 -47.9375 L 71.828125 0 L 56.9375 0 L 55.15625 -11.890625 L 55.0625 -11.890625 C 52.875 -7.710938 49.484375 -4.40625 44.890625 -1.96875 C 40.304688 0.46875 34.894531 1.6875 28.65625 1.6875 Z M 28.65625 1.6875 "/></g></g></g><g fill="#ffffff" fill-opacity="1"><g transform="translate(231.214884, 70.747187)"><g><path d="M 40.453125 -49.625 C 45.753906 -49.625 50.09375 -47.875 53.46875 -44.375 C 56.84375 -40.882812 58.75 -36.082031 59.1875 -29.96875 L 43.640625 -26.6875 C 43.390625 -30.4375 42.359375 -33.367188 40.546875 -35.484375 C 38.734375 -37.609375 36.453125 -38.671875 33.703125 -38.671875 C 29.710938 -38.671875 26.578125 -37.09375 24.296875 -33.9375 C 22.015625 -30.789062 20.875 -26.53125 20.875 -21.15625 L 20.875 0 L 3.75 0 L 3.75 -47.9375 L 18.171875 -47.9375 L 20.40625 -37.078125 L 20.5 -37.078125 C 22.3125 -40.953125 24.992188 -44.007812 28.546875 -46.25 C 32.109375 -48.5 36.078125 -49.625 40.453125 -49.625 Z M 40.453125 -49.625 "/></g></g></g><g fill="#ffffff" fill-opacity="1"><g transform="translate(290.864308, 70.747187)"><g><path d="M 42.140625 1.6875 C 34.335938 1.6875 27.4375 0.609375 21.4375 -1.546875 C 15.445312 -3.703125 10.765625 -6.726562 7.390625 -10.625 C 4.023438 -14.53125 2.34375 -19.039062 2.34375 -24.15625 C 2.34375 -29.15625 3.882812 -33.554688 6.96875 -37.359375 C 10.0625 -41.171875 14.351562 -44.164062 19.84375 -46.34375 C 25.34375 -48.53125 31.648438 -49.625 38.765625 -49.625 C 45.753906 -49.625 51.882812 -48.546875 57.15625 -46.390625 C 62.4375 -44.242188 66.554688 -41.265625 69.515625 -37.453125 C 72.484375 -33.648438 73.96875 -29.1875 73.96875 -24.0625 C 73.96875 -23.5 73.9375 -22.796875 73.875 -21.953125 C 73.8125 -21.109375 73.691406 -20.347656 73.515625 -19.671875 L 20.59375 -19.671875 C 21.28125 -17.359375 22.734375 -15.40625 24.953125 -13.8125 C 27.171875 -12.21875 29.882812 -11.015625 33.09375 -10.203125 C 36.3125 -9.390625 39.765625 -8.984375 43.453125 -8.984375 C 46.941406 -8.984375 50.328125 -9.265625 53.609375 -9.828125 C 56.890625 -10.390625 59.882812 -11.171875 62.59375 -12.171875 C 65.3125 -13.171875 67.515625 -14.296875 69.203125 -15.546875 L 74.625 -6.921875 C 72.445312 -5.242188 69.65625 -3.75 66.25 -2.4375 C 62.84375 -1.125 59.078125 -0.109375 54.953125 0.609375 C 50.835938 1.328125 46.566406 1.6875 42.140625 1.6875 Z M 20.21875 -28 L 56.65625 -28 C 56.46875 -30.3125 55.546875 -32.320312 53.890625 -34.03125 C 52.234375 -35.75 50.078125 -37.078125 47.421875 -38.015625 C 44.773438 -38.953125 41.796875 -39.421875 38.484375 -39.421875 C 35.234375 -39.421875 32.28125 -38.9375 29.625 -37.96875 C 26.976562 -37 24.828125 -35.65625 23.171875 -33.9375 C 21.515625 -32.226562 20.53125 -30.25 20.21875 -28 Z M 20.21875 -28 "/></g></g></g></g></g></g></g></g></g></g></svg>