<svg xmlns="http://www.w3.org/2000/svg" xmlns:xlink="http://www.w3.org/1999/xlink" width="500" zoomAndPan="magnify" viewBox="0 0 375 374.999991" height="500" preserveAspectRatio="xMidYMid meet" version="1.0"><defs><g/><clipPath id="9fc6dedaa7"><path d="M 0 0 L 374.847656 0 L 374.847656 374.847656 L 0 374.847656 Z M 0 0 " clip-rule="nonzero"/></clipPath><clipPath id="1b91eed6b4"><path d="M 0.140625 0 L 374.847656 0 L 374.847656 374.847656 L 0.140625 374.847656 Z M 0.140625 0 " clip-rule="nonzero"/></clipPath><clipPath id="232c1ba777"><rect x="0" width="375" y="0" height="375"/></clipPath><clipPath id="a3fae690e5"><rect x="0" width="375" y="0" height="375"/></clipPath></defs><g transform="matrix(1, 0, 0, 1, 0, 0)"><g clip-path="url(#a3fae690e5)"><g clip-path="url(#9fc6dedaa7)"><g transform="matrix(1, 0, 0, 1, 0, 0)"><g clip-path="url(#232c1ba777)"><g clip-path="url(#1b91eed6b4)"><path fill="#ffffff" d="M 15.746094 373.832031 L 15.488281 372.421875 L 15.0625 362.285156 C 15.046875 361.261719 14.417969 360.792969 13.179688 360.886719 L 12.789062 355.265625 L 12.152344 360.257812 C 12.140625 355.699219 11.914062 355.683594 11.46875 360.210938 L 10.480469 344.273438 C 10.351562 310.777344 7.367188 229.996094 1.53125 101.929688 L 0.0546875 46.667969 C 0.109375 44.921875 0.308594 46.683594 0.644531 51.945312 C 0.289062 44.835938 0.453125 40.050781 1.144531 37.601562 L 1.179688 11.941406 L 2.878906 32.453125 L 2.519531 10.886719 L 13.015625 2.6875 C 21.015625 2.285156 25.378906 2.273438 26.113281 2.644531 L 11.699219 3.371094 C 10.742188 3.464844 10.570312 3.519531 11.175781 3.527344 L 38.492188 3.027344 C 30.894531 3.480469 30.609375 3.738281 37.628906 3.804688 C 40.375 3.867188 40.6875 3.757812 38.566406 3.476562 L 42.710938 3.324219 L 138.34375 1.011719 L 210.21875 0 C 214.265625 0.0351562 211.347656 0.160156 201.46875 0.371094 L 164.035156 0.921875 L 141.539062 1.695312 C 192.585938 1.394531 219.496094 1.730469 222.273438 2.695312 L 219.328125 3.085938 L 185.679688 2.824219 C 181.363281 2.832031 178.476562 2.996094 177.019531 3.316406 L 134.449219 3.804688 C 116.675781 4.492188 118.734375 4.835938 140.632812 4.84375 L 189.6875 4.050781 L 197.320312 4.039062 L 196.96875 4.222656 L 163.765625 4.832031 C 161.488281 4.90625 161.644531 4.949219 164.238281 4.953125 L 169.96875 4.9375 L 161.367188 5.28125 L 130.128906 6.164062 L 119.847656 6.175781 L 120.894531 6.507812 L 68.199219 8.5625 L 48.324219 8.574219 C 46.074219 8.613281 45.324219 8.785156 46.066406 9.085938 L 104.511719 10.152344 L 85.265625 10.238281 L 43.058594 10.640625 C 40.679688 10.648438 39.53125 10.691406 39.617188 10.761719 L 374.636719 11.167969 L 374.90625 105.058594 C 374.402344 107.046875 374.167969 148.246094 374.207031 228.664062 L 373.75 246.570312 C 373.9375 236.128906 373.882812 235.199219 373.589844 243.785156 C 373.554688 252.820312 373.691406 253.378906 374 245.460938 L 373.972656 255.007812 C 373.953125 257.78125 373.828125 258.3125 373.605469 256.597656 L 373.574219 258.984375 L 372.808594 340.730469 L 373.117188 346.90625 C 373.082031 319.554688 373.253906 305.742188 373.632812 305.46875 L 373.714844 373.691406 L 271.636719 372.949219 L 249.691406 372.90625 C 252.097656 373 252.132812 373.050781 249.796875 373.058594 L 140.296875 372.878906 C 132.773438 372.789062 130.25 372.710938 132.722656 372.640625 L 195.5625 372.738281 C 208.257812 372.621094 209.707031 372.515625 199.90625 372.425781 C 134.84375 372.34375 71.859375 371.992188 10.960938 371.371094 L 115.527344 371.511719 C 122.09375 371.457031 123.171875 371.371094 118.75 371.257812 L 95.773438 370.996094 L 99.492188 370.914062 L 177.003906 371.210938 L 190.207031 371.230469 L 188.769531 371.09375 L 195.683594 371.082031 L 225.953125 371.527344 C 224.390625 371.464844 224.496094 371.34375 226.273438 371.160156 L 326.046875 371.027344 C 329.101562 370.609375 328.578125 370.335938 324.484375 370.203125 L 318.992188 370.324219 C 324.707031 370.199219 323.257812 370.105469 314.644531 370.042969 L 300.023438 370.148438 L 290.304688 369.824219 L 175.0625 369.945312 C 174.25 369.910156 174.476562 369.875 175.742188 369.832031 L 185.148438 369.6875 L 240.933594 369.535156 C 243.449219 369.453125 243.285156 369.328125 240.445312 369.160156 L 231.5625 369.121094 C 228.832031 369.085938 228.328125 369.019531 230.054688 368.910156 L 262.40625 368.980469 C 272.734375 368.875 276.4375 368.761719 273.515625 368.632812 L 160.210938 368.679688 C 150.164062 368.617188 150.714844 368.550781 161.859375 368.476562 L 271.910156 368.097656 L 286.921875 368.4375 L 292.882812 368.367188 C 291.382812 368.21875 291.746094 368.164062 293.972656 368.214844 L 319.441406 368.46875 L 332.304688 368.902344 L 372.914062 368.960938 L 368.710938 374.992188 L 368.792969 360.507812 C 368.714844 369.875 368.449219 370.457031 368.003906 362.25 L 368.0625 359.660156 C 368.472656 362.417969 368.667969 362.132812 368.648438 358.796875 L 368.230469 334.109375 L 368.4375 331.316406 L 368.265625 326.753906 L 368.386719 322.472656 L 368.566406 323.210938 L 368.632812 316.226562 L 368.597656 310.839844 C 368.320312 314.15625 368.226562 313.800781 368.3125 309.773438 L 368.621094 305.640625 L 368.136719 293.945312 L 368.011719 295.300781 L 367.882812 289.285156 C 367.902344 286.25 368.027344 285.832031 368.257812 288.042969 L 368.070312 250.203125 L 368.171875 239.324219 C 368.515625 233.527344 368.730469 234.074219 368.820312 240.972656 L 368.941406 230.988281 L 368.773438 212.832031 L 368.753906 227.515625 C 368.527344 231.882812 368.324219 232.613281 368.152344 229.703125 L 368.636719 223.445312 L 367.929688 86.71875 L 367.960938 82.675781 C 368.195312 87.789062 368.289062 88.320312 368.25 84.265625 L 368.089844 77.914062 C 368.039062 82.09375 367.972656 82.1875 367.882812 78.191406 L 367.34375 13.65625 L 374 18.605469 L 345.792969 18.304688 L 325.804688 18.902344 C 304.003906 19.238281 294.492188 19.230469 297.277344 18.875 L 294.417969 18.976562 C 295.964844 19.121094 295.519531 19.199219 293.085938 19.210938 L 282.429688 19.308594 L 278.5 19.300781 C 276.519531 19.304688 276.484375 19.253906 278.394531 19.140625 L 272.636719 19.078125 L 261.230469 19.527344 C 259.328125 19.277344 256.289062 19.183594 252.113281 19.253906 L 235.457031 19.703125 L 236.050781 19.5 L 230.898438 19.226562 C 236.3125 19.140625 236.363281 18.945312 231.054688 18.644531 L 220.601562 18.417969 L 220.292969 18.621094 L 223.964844 18.777344 L 219.65625 19.582031 L 188.640625 20.078125 L 174.421875 19.773438 L 166.246094 20.042969 L 168.132812 20.269531 L 149.570312 20.332031 L 141.824219 19.941406 C 116.621094 20.453125 91.402344 20.742188 66.167969 20.816406 C 65.257812 20.742188 65.164062 20.582031 65.890625 20.328125 L 58.203125 20.132812 L 56.898438 20.3125 L 62.972656 20.445312 L 59.488281 20.789062 L 13.804688 21.273438 L 21.074219 11.632812 C 21.6875 149.5 21.589844 231.632812 20.78125 258.035156 C 20.007812 285.710938 19.714844 283.339844 19.90625 250.921875 L 18.871094 302.859375 L 18.460938 313.96875 C 18.285156 306 18.171875 304.4375 18.113281 309.289062 L 18.019531 322.1875 C 17.558594 316.726562 17.269531 316.589844 17.152344 321.777344 L 17.15625 313.863281 L 17.046875 314.609375 L 17.433594 360.066406 C 17.550781 362.433594 17.292969 363.457031 16.667969 363.136719 L 16.050781 374.050781 C 15.820312 374.335938 15.71875 374.265625 15.746094 373.832031 " fill-opacity="1" fill-rule="nonzero"/></g></g></g></g><g fill="#ffffff" fill-opacity="1"><g transform="translate(61.477834, 202.42359)"><g><path d="M 3.21875 0 L 3.21875 -45.75 L 50.1875 -45.75 L 50.1875 -37.34375 L 15.75 -37.34375 L 15.75 -27.125 L 47.625 -27.125 L 47.625 -19.734375 L 15.75 -19.734375 L 15.75 -8.421875 L 50.828125 -8.421875 L 50.828125 0 Z M 3.21875 0 "/></g></g></g><g fill="#ffffff" fill-opacity="1"><g transform="translate(113.078355, 202.42359)"><g><path d="M 2.578125 13.5 L 2.578125 -32.90625 L 12.71875 -32.90625 L 14.203125 -24.671875 L 14.265625 -24.671875 C 15.160156 -26.554688 16.519531 -28.207031 18.34375 -29.625 C 20.164062 -31.039062 22.316406 -32.132812 24.796875 -32.90625 C 27.285156 -33.675781 29.945312 -34.0625 32.78125 -34.0625 C 36.976562 -34.0625 40.628906 -33.332031 43.734375 -31.875 C 46.835938 -30.414062 49.242188 -28.367188 50.953125 -25.734375 C 52.671875 -23.097656 53.53125 -20.003906 53.53125 -16.453125 C 53.53125 -12.941406 52.671875 -9.859375 50.953125 -7.203125 C 49.242188 -4.546875 46.835938 -2.488281 43.734375 -1.03125 C 40.628906 0.425781 37 1.15625 32.84375 1.15625 C 30.007812 1.15625 27.359375 0.769531 24.890625 0 C 22.429688 -0.769531 20.289062 -1.859375 18.46875 -3.265625 C 16.65625 -4.679688 15.296875 -6.332031 14.390625 -8.21875 L 14.328125 -8.21875 L 14.328125 13.5 Z M 27.828125 -7 C 32.023438 -7 35.394531 -7.863281 37.9375 -9.59375 C 40.488281 -11.332031 41.765625 -13.617188 41.765625 -16.453125 C 41.765625 -19.273438 40.488281 -21.554688 37.9375 -23.296875 C 35.394531 -25.035156 32.023438 -25.90625 27.828125 -25.90625 C 23.671875 -25.90625 20.316406 -25.035156 17.765625 -23.296875 C 15.222656 -21.554688 13.953125 -19.273438 13.953125 -16.453125 C 13.953125 -13.617188 15.222656 -11.332031 17.765625 -9.59375 C 20.316406 -7.863281 23.671875 -7 27.828125 -7 Z M 27.828125 -7 "/></g></g></g><g fill="#ffffff" fill-opacity="1"><g transform="translate(167.699067, 202.42359)"><g><path d="M 19.671875 1.15625 C 16.066406 1.15625 12.945312 0.523438 10.3125 -0.734375 C 7.675781 -2.003906 5.648438 -3.816406 4.234375 -6.171875 C 2.828125 -8.523438 2.125 -11.3125 2.125 -14.53125 L 2.125 -32.90625 L 13.875 -32.90625 L 13.875 -15.75 C 13.875 -12.707031 14.816406 -10.328125 16.703125 -8.609375 C 18.585938 -6.898438 21.222656 -6.046875 24.609375 -6.046875 C 28.679688 -6.046875 31.863281 -7.09375 34.15625 -9.1875 C 36.445312 -11.289062 37.59375 -14.226562 37.59375 -18 L 37.59375 -32.90625 L 49.296875 -32.90625 L 49.296875 0 L 39.078125 0 L 37.859375 -8.15625 L 37.78125 -8.15625 C 36.28125 -5.289062 33.957031 -3.019531 30.8125 -1.34375 C 27.664062 0.320312 23.953125 1.15625 19.671875 1.15625 Z M 19.671875 1.15625 "/></g></g></g><g fill="#ffffff" fill-opacity="1"><g transform="translate(219.04254, 202.42359)"><g><path d="M 27.765625 -34.0625 C 31.398438 -34.0625 34.375 -32.859375 36.6875 -30.453125 C 39.007812 -28.054688 40.316406 -24.757812 40.609375 -20.5625 L 29.953125 -18.3125 C 29.773438 -20.882812 29.066406 -22.898438 27.828125 -24.359375 C 26.585938 -25.816406 25.023438 -26.546875 23.140625 -26.546875 C 20.390625 -26.546875 18.234375 -25.460938 16.671875 -23.296875 C 15.109375 -21.128906 14.328125 -18.207031 14.328125 -14.53125 L 14.328125 0 L 2.578125 0 L 2.578125 -32.90625 L 12.46875 -32.90625 L 14.015625 -25.453125 L 14.078125 -25.453125 C 15.316406 -28.109375 17.15625 -30.207031 19.59375 -31.75 C 22.039062 -33.289062 24.765625 -34.0625 27.765625 -34.0625 Z M 27.765625 -34.0625 "/></g></g></g><g fill="#ffffff" fill-opacity="1"><g transform="translate(259.975952, 202.42359)"><g><path d="M 28.921875 1.15625 C 23.566406 1.15625 18.832031 0.414062 14.71875 -1.0625 C 10.601562 -2.539062 7.390625 -4.617188 5.078125 -7.296875 C 2.765625 -9.972656 1.609375 -13.066406 1.609375 -16.578125 C 1.609375 -20.003906 2.664062 -23.023438 4.78125 -25.640625 C 6.90625 -28.253906 9.851562 -30.3125 13.625 -31.8125 C 17.394531 -33.3125 21.722656 -34.0625 26.609375 -34.0625 C 31.398438 -34.0625 35.609375 -33.320312 39.234375 -31.84375 C 42.859375 -30.363281 45.6875 -28.316406 47.71875 -25.703125 C 49.75 -23.085938 50.765625 -20.023438 50.765625 -16.515625 C 50.765625 -16.128906 50.742188 -15.644531 50.703125 -15.0625 C 50.660156 -14.488281 50.578125 -13.96875 50.453125 -13.5 L 14.140625 -13.5 C 14.609375 -11.914062 15.601562 -10.578125 17.125 -9.484375 C 18.644531 -8.390625 20.507812 -7.5625 22.71875 -7 C 24.925781 -6.445312 27.289062 -6.171875 29.8125 -6.171875 C 32.21875 -6.171875 34.546875 -6.363281 36.796875 -6.75 C 39.046875 -7.132812 41.097656 -7.664062 42.953125 -8.34375 C 44.816406 -9.03125 46.332031 -9.804688 47.5 -10.671875 L 51.21875 -4.75 C 49.71875 -3.59375 47.800781 -2.566406 45.46875 -1.671875 C 43.132812 -0.773438 40.550781 -0.0820312 37.71875 0.40625 C 34.894531 0.90625 31.960938 1.15625 28.921875 1.15625 Z M 13.875 -19.21875 L 38.875 -19.21875 C 38.75 -20.800781 38.117188 -22.179688 36.984375 -23.359375 C 35.847656 -24.535156 34.367188 -25.445312 32.546875 -26.09375 C 30.722656 -26.738281 28.675781 -27.0625 26.40625 -27.0625 C 24.1875 -27.0625 22.164062 -26.726562 20.34375 -26.0625 C 18.519531 -25.394531 17.039062 -24.472656 15.90625 -23.296875 C 14.769531 -22.117188 14.09375 -20.757812 13.875 -19.21875 Z M 13.875 -19.21875 "/></g></g></g></g></g></svg>