<svg xmlns="http://www.w3.org/2000/svg" xmlns:xlink="http://www.w3.org/1999/xlink" width="500" zoomAndPan="magnify" viewBox="0 0 375 374.999991" height="500" preserveAspectRatio="xMidYMid meet" version="1.0"><defs><g/><clipPath id="8e5c2d6b35"><path d="M 0.785156 0.785156 L 374 0.785156 L 374 374 L 0.785156 374 Z M 0.785156 0.785156 " clip-rule="nonzero"/></clipPath><clipPath id="7c55336757"><path d="M 0.785156 0.785156 L 373.984375 0.785156 L 373.984375 374 L 0.785156 374 Z M 0.785156 0.785156 " clip-rule="nonzero"/></clipPath><clipPath id="002a33dba1"><rect x="0" width="374" y="0" height="374"/></clipPath><clipPath id="91ac35a655"><rect x="0" width="374" y="0" height="374"/></clipPath></defs><g transform="matrix(1, 0, 0, 1, 1, 1)"><g clip-path="url(#91ac35a655)"><g clip-path="url(#8e5c2d6b35)"><g transform="matrix(1, 0, 0, 1, -0.000000000000000222, 0)"><g clip-path="url(#002a33dba1)"><g clip-path="url(#7c55336757)"><path fill="#343332" d="M 16.457031 372.835938 L 16.199219 371.433594 L 15.777344 361.34375 C 15.761719 360.324219 15.136719 359.859375 13.902344 359.953125 L 13.515625 354.359375 L 12.878906 359.328125 C 12.871094 354.789062 12.644531 354.773438 12.199219 359.28125 L 11.214844 343.417969 C 11.085938 310.082031 8.117188 229.6875 2.308594 102.226562 L 0.839844 47.226562 C 0.894531 45.492188 1.089844 47.246094 1.425781 52.484375 C 1.070312 45.40625 1.234375 40.644531 1.921875 38.207031 L 1.960938 12.671875 L 3.648438 33.082031 L 3.292969 11.617188 L 13.738281 3.457031 C 21.699219 3.058594 26.042969 3.046875 26.773438 3.417969 L 12.425781 4.140625 C 11.476562 4.234375 11.304688 4.285156 11.90625 4.296875 L 39.09375 3.800781 C 31.53125 4.246094 31.246094 4.503906 38.234375 4.570312 C 40.96875 4.632812 41.28125 4.523438 39.167969 4.246094 L 43.292969 4.09375 L 138.472656 1.792969 L 210 0.785156 C 214.027344 0.820312 211.125 0.941406 201.292969 1.152344 L 164.039062 1.703125 L 141.652344 2.472656 C 192.453125 2.171875 219.234375 2.503906 221.996094 3.46875 L 219.066406 3.855469 L 185.578125 3.59375 C 181.285156 3.601562 178.410156 3.765625 176.960938 4.085938 L 134.59375 4.570312 C 116.902344 5.253906 118.953125 5.597656 140.746094 5.605469 L 189.570312 4.816406 L 197.167969 4.804688 L 196.816406 4.988281 L 163.769531 5.59375 C 161.503906 5.667969 161.660156 5.707031 164.238281 5.714844 L 169.945312 5.695312 L 161.382812 6.042969 L 130.296875 6.921875 L 120.0625 6.933594 L 121.101562 7.257812 L 68.660156 9.304688 L 48.878906 9.316406 C 46.640625 9.359375 45.890625 9.527344 46.632812 9.824219 L 104.800781 10.886719 L 85.640625 10.976562 L 43.636719 11.371094 C 41.269531 11.382812 40.128906 11.421875 40.214844 11.496094 L 373.636719 11.902344 L 373.90625 105.34375 C 373.40625 107.320312 373.171875 148.324219 373.210938 228.359375 L 372.753906 246.183594 C 372.941406 235.789062 372.886719 234.863281 372.59375 243.410156 C 372.558594 252.402344 372.695312 252.957031 373.003906 245.078125 L 372.976562 254.578125 C 372.953125 257.339844 372.832031 257.867188 372.613281 256.160156 L 372.578125 258.535156 L 371.816406 339.894531 L 372.125 346.039062 C 372.089844 318.820312 372.261719 305.070312 372.640625 304.796875 L 372.71875 372.695312 L 271.125 371.957031 L 249.285156 371.914062 C 251.683594 372.007812 251.71875 372.058594 249.394531 372.066406 L 140.414062 371.890625 C 132.925781 371.800781 130.414062 371.71875 132.875 371.652344 L 195.414062 371.746094 C 208.050781 371.628906 209.492188 371.527344 199.738281 371.4375 C 134.984375 371.355469 72.304688 371.003906 11.695312 370.386719 L 115.761719 370.523438 C 122.296875 370.472656 123.367188 370.386719 118.96875 370.273438 L 96.101562 370.011719 L 99.800781 369.929688 L 176.945312 370.230469 L 190.085938 370.246094 L 188.652344 370.109375 L 195.539062 370.097656 L 225.660156 370.542969 C 224.105469 370.480469 224.210938 370.359375 225.980469 370.175781 L 325.277344 370.046875 C 328.316406 369.628906 327.800781 369.355469 323.722656 369.226562 L 318.257812 369.34375 C 323.945312 369.222656 322.503906 369.128906 313.933594 369.066406 L 299.378906 369.167969 L 289.703125 368.84375 L 175.011719 368.964844 C 174.203125 368.933594 174.429688 368.898438 175.691406 368.855469 L 185.050781 368.710938 L 240.570312 368.558594 C 243.074219 368.476562 242.914062 368.351562 240.085938 368.1875 L 231.242188 368.144531 C 228.527344 368.113281 228.027344 368.042969 229.742188 367.9375 L 261.941406 368.003906 C 272.21875 367.902344 275.90625 367.789062 273 367.664062 L 160.234375 367.710938 C 150.234375 367.648438 150.78125 367.578125 161.875 367.507812 L 271.398438 367.128906 L 286.339844 367.464844 L 292.273438 367.398438 C 290.777344 367.246094 291.140625 367.195312 293.359375 367.246094 L 318.707031 367.5 L 331.503906 367.929688 L 371.925781 367.988281 L 367.738281 373.992188 L 367.820312 359.574219 C 367.742188 368.898438 367.480469 369.476562 367.035156 361.308594 L 367.09375 358.730469 C 367.503906 361.476562 367.699219 361.191406 367.679688 357.875 L 367.261719 333.300781 L 367.46875 330.523438 L 367.296875 325.984375 L 367.417969 321.722656 L 367.597656 322.457031 L 367.664062 315.503906 L 367.625 310.140625 C 367.351562 313.445312 367.257812 313.09375 367.34375 309.082031 L 367.648438 304.96875 L 367.167969 293.332031 L 367.042969 294.679688 L 366.917969 288.691406 C 366.933594 285.671875 367.058594 285.257812 367.285156 287.453125 L 367.101562 249.796875 L 367.203125 238.96875 C 367.542969 233.199219 367.757812 233.746094 367.847656 240.609375 L 367.96875 230.671875 L 367.800781 212.605469 L 367.78125 227.214844 C 367.554688 231.5625 367.355469 232.289062 367.183594 229.394531 L 367.667969 223.164062 L 366.960938 87.089844 L 366.996094 83.066406 C 367.226562 88.15625 367.320312 88.683594 367.28125 84.648438 L 367.121094 78.328125 C 367.070312 82.488281 367.003906 82.582031 366.914062 78.601562 L 366.378906 14.375 L 373 19.300781 L 344.929688 19 L 325.039062 19.597656 C 303.339844 19.933594 293.875 19.921875 296.644531 19.566406 L 293.800781 19.671875 C 295.339844 19.816406 294.894531 19.894531 292.472656 19.90625 L 281.867188 20 L 277.957031 19.992188 C 275.988281 20 275.953125 19.945312 277.855469 19.832031 L 272.125 19.773438 L 260.769531 20.21875 C 258.878906 19.96875 255.851562 19.878906 251.695312 19.945312 L 235.121094 20.394531 L 235.710938 20.191406 L 230.585938 19.917969 C 235.972656 19.832031 236.023438 19.640625 230.742188 19.339844 L 220.335938 19.113281 L 220.027344 19.316406 L 223.683594 19.472656 L 219.394531 20.273438 L 188.527344 20.765625 L 174.375 20.464844 L 166.238281 20.734375 L 168.117188 20.957031 L 149.644531 21.019531 L 141.933594 20.628906 C 116.851562 21.136719 91.75 21.429688 66.636719 21.5 C 65.730469 21.429688 65.636719 21.269531 66.359375 21.015625 L 58.710938 20.824219 L 57.410156 21 L 63.457031 21.132812 L 59.992188 21.476562 L 14.523438 21.957031 L 21.761719 12.363281 C 22.367188 149.570312 22.269531 231.3125 21.46875 257.589844 C 20.695312 285.132812 20.40625 282.773438 20.597656 250.511719 L 19.566406 302.203125 L 19.15625 313.257812 C 18.984375 305.324219 18.867188 303.773438 18.8125 308.601562 L 18.71875 321.4375 C 18.257812 316.003906 17.96875 315.867188 17.855469 321.03125 L 17.859375 313.152344 L 17.75 313.894531 L 18.136719 359.136719 C 18.25 361.492188 17.996094 362.507812 17.371094 362.191406 L 16.757812 373.054688 C 16.527344 373.339844 16.429688 373.265625 16.457031 372.835938 " fill-opacity="1" fill-rule="nonzero"/></g></g></g></g><g fill="#343332" fill-opacity="1"><g transform="translate(50.750429, 204.811)"><g><path d="M 3.484375 0 L 3.484375 -49.609375 L 54.40625 -49.609375 L 54.40625 -40.484375 L 17.0625 -40.484375 L 17.0625 -29.40625 L 51.625 -29.40625 L 51.625 -21.390625 L 17.0625 -21.390625 L 17.0625 -9.125 L 55.109375 -9.125 L 55.109375 0 Z M 3.484375 0 "/></g></g></g><g fill="#343332" fill-opacity="1"><g transform="translate(106.699261, 204.811)"><g><path d="M 2.78125 14.625 L 2.78125 -35.671875 L 13.796875 -35.671875 L 15.390625 -26.75 L 15.46875 -26.75 C 16.445312 -28.789062 17.921875 -30.578125 19.890625 -32.109375 C 21.867188 -33.648438 24.203125 -34.835938 26.890625 -35.671875 C 29.585938 -36.503906 32.46875 -36.921875 35.53125 -36.921875 C 40.082031 -36.921875 44.039062 -36.128906 47.40625 -34.546875 C 50.78125 -32.972656 53.394531 -30.757812 55.25 -27.90625 C 57.101562 -25.050781 58.03125 -21.695312 58.03125 -17.84375 C 58.03125 -14.03125 57.101562 -10.679688 55.25 -7.796875 C 53.394531 -4.921875 50.78125 -2.691406 47.40625 -1.109375 C 44.039062 0.460938 40.109375 1.25 35.609375 1.25 C 32.535156 1.25 29.660156 0.832031 26.984375 0 C 24.316406 -0.832031 21.992188 -2.015625 20.015625 -3.546875 C 18.046875 -5.085938 16.578125 -6.878906 15.609375 -8.921875 L 15.53125 -8.921875 L 15.53125 14.625 Z M 30.171875 -7.59375 C 34.722656 -7.59375 38.378906 -8.53125 41.140625 -10.40625 C 43.898438 -12.289062 45.28125 -14.769531 45.28125 -17.84375 C 45.28125 -20.90625 43.898438 -23.375 41.140625 -25.25 C 38.378906 -27.132812 34.722656 -28.078125 30.171875 -28.078125 C 25.660156 -28.078125 22.023438 -27.132812 19.265625 -25.25 C 16.503906 -23.375 15.125 -20.90625 15.125 -17.84375 C 15.125 -14.769531 16.503906 -12.289062 19.265625 -10.40625 C 22.023438 -8.53125 25.660156 -7.59375 30.171875 -7.59375 Z M 30.171875 -7.59375 "/></g></g></g><g fill="#343332" fill-opacity="1"><g transform="translate(165.922792, 204.811)"><g><path d="M 21.3125 1.25 C 17.414062 1.25 14.035156 0.566406 11.171875 -0.796875 C 8.316406 -2.171875 6.125 -4.132812 4.59375 -6.6875 C 3.0625 -9.238281 2.296875 -12.257812 2.296875 -15.75 L 2.296875 -35.671875 L 15.046875 -35.671875 L 15.046875 -17.0625 C 15.046875 -13.769531 16.066406 -11.191406 18.109375 -9.328125 C 20.160156 -7.472656 23.019531 -6.546875 26.6875 -6.546875 C 31.09375 -6.546875 34.539062 -7.679688 37.03125 -9.953125 C 39.519531 -12.234375 40.765625 -15.421875 40.765625 -19.515625 L 40.765625 -35.671875 L 53.4375 -35.671875 L 53.4375 0 L 42.359375 0 L 41.03125 -8.84375 L 40.96875 -8.84375 C 39.34375 -5.738281 36.820312 -3.28125 33.40625 -1.46875 C 29.988281 0.34375 25.957031 1.25 21.3125 1.25 Z M 21.3125 1.25 "/></g></g></g><g fill="#343332" fill-opacity="1"><g transform="translate(221.592915, 204.811)"><g><path d="M 30.09375 -36.921875 C 34.039062 -36.921875 37.269531 -35.617188 39.78125 -33.015625 C 42.289062 -30.421875 43.707031 -26.847656 44.03125 -22.296875 L 32.46875 -19.859375 C 32.28125 -22.640625 31.507812 -24.820312 30.15625 -26.40625 C 28.8125 -27.988281 27.117188 -28.78125 25.078125 -28.78125 C 22.109375 -28.78125 19.773438 -27.601562 18.078125 -25.25 C 16.378906 -22.90625 15.53125 -19.738281 15.53125 -15.75 L 15.53125 0 L 2.78125 0 L 2.78125 -35.671875 L 13.515625 -35.671875 L 15.1875 -27.59375 L 15.265625 -27.59375 C 16.609375 -30.46875 18.601562 -32.738281 21.25 -34.40625 C 23.894531 -36.082031 26.84375 -36.921875 30.09375 -36.921875 Z M 30.09375 -36.921875 "/></g></g></g><g fill="#343332" fill-opacity="1"><g transform="translate(265.975734, 204.811)"><g><path d="M 31.359375 1.25 C 25.546875 1.25 20.410156 0.453125 15.953125 -1.140625 C 11.492188 -2.742188 8.007812 -5 5.5 -7.90625 C 2.988281 -10.8125 1.734375 -14.164062 1.734375 -17.96875 C 1.734375 -21.6875 2.882812 -24.960938 5.1875 -27.796875 C 7.488281 -30.628906 10.679688 -32.859375 14.765625 -34.484375 C 18.859375 -36.109375 23.550781 -36.921875 28.84375 -36.921875 C 34.039062 -36.921875 38.601562 -36.117188 42.53125 -34.515625 C 46.457031 -32.921875 49.523438 -30.707031 51.734375 -27.875 C 53.941406 -25.039062 55.046875 -21.71875 55.046875 -17.90625 C 55.046875 -17.488281 55.019531 -16.960938 54.96875 -16.328125 C 54.925781 -15.703125 54.832031 -15.132812 54.6875 -14.625 L 15.328125 -14.625 C 15.835938 -12.90625 16.914062 -11.453125 18.5625 -10.265625 C 20.21875 -9.085938 22.238281 -8.195312 24.625 -7.59375 C 27.019531 -6.988281 29.585938 -6.6875 32.328125 -6.6875 C 34.929688 -6.6875 37.453125 -6.894531 39.890625 -7.3125 C 42.328125 -7.726562 44.554688 -8.304688 46.578125 -9.046875 C 48.597656 -9.796875 50.234375 -10.632812 51.484375 -11.5625 L 55.53125 -5.15625 C 53.90625 -3.90625 51.828125 -2.789062 49.296875 -1.8125 C 46.765625 -0.832031 43.960938 -0.078125 40.890625 0.453125 C 37.828125 0.984375 34.648438 1.25 31.359375 1.25 Z M 15.046875 -20.828125 L 42.15625 -20.828125 C 42.007812 -22.546875 41.320312 -24.039062 40.09375 -25.3125 C 38.863281 -26.59375 37.257812 -27.582031 35.28125 -28.28125 C 33.3125 -28.976562 31.097656 -29.328125 28.640625 -29.328125 C 26.222656 -29.328125 24.023438 -28.96875 22.046875 -28.25 C 20.078125 -27.53125 18.472656 -26.53125 17.234375 -25.25 C 16.003906 -23.976562 15.273438 -22.503906 15.046875 -20.828125 Z M 15.046875 -20.828125 "/></g></g></g></g></g></svg>